<?xml version="1.0" encoding="UTF-8" standalone="no"?><!DOCTYPE svg PUBLIC "-//W3C//DTD SVG 1.1//EN" "http://www.w3.org/Graphics/SVG/1.1/DTD/svg11.dtd"><svg width="100%" height="100%" viewBox="0 0 213 272" version="1.1" xmlns="http://www.w3.org/2000/svg" xmlns:xlink="http://www.w3.org/1999/xlink" xml:space="preserve" style="fill-rule:evenodd;clip-rule:evenodd;stroke-linejoin:round;stroke-miterlimit:1.41421;"><path d="M14.855,60.403l60.402,-60.403c19.76,19.759 19.76,51.795 0,71.554l-60.402,60.404c-19.759,-19.76 -19.759,-51.797 0,-71.555Z" style="fill:#095684;fill-rule:nonzero;"/><path d="M75.214,120.847l-19.416,-19.416l-40.986,-40.986c-13.454,13.455 -17.738,32.595 -12.872,49.682c2.282,8.008 6.564,15.567 12.872,21.873l60.402,60.402c19.759,-19.758 19.759,-51.795 0,-71.555Z" style="fill:#23b99a;fill-rule:nonzero;"/><path d="M197.204,60.403l-60.402,-60.403c-19.759,19.759 -19.759,51.795 0,71.554l60.402,60.404c19.76,-19.76 19.76,-51.797 0,-71.555Z" style="fill:#23b99a;fill-rule:nonzero;"/><path d="M136.846,120.847l19.416,-19.416l40.987,-40.986c13.452,13.455 17.736,32.595 12.87,49.682c-2.281,8.008 -6.565,15.567 -12.87,21.873l-60.403,60.402c-19.76,-19.758 -19.76,-51.795 0,-71.555Z" style="fill:#095684;fill-rule:nonzero;"/><text x="18.774px" y="256.971px" style="font-family:'Aharoni-Bold', 'Aharoni';font-weight:700;font-size:54px;fill:#095684;">DFWEB</text></svg>