<?xml version="1.0" encoding="UTF-8" standalone="no"?><!DOCTYPE svg PUBLIC "-//W3C//DTD SVG 1.1//EN" "http://www.w3.org/Graphics/SVG/1.1/DTD/svg11.dtd">
<svg width="100%" height="100%" viewBox="0 0 234 82" version="1.1" xmlns="http://www.w3.org/2000/svg" xmlns:xlink="http://www.w3.org/1999/xlink" xml:space="preserve" style="fill-rule:evenodd;clip-rule:evenodd;stroke-linejoin:round;stroke-miterlimit:1.41421;">
<path d="M21.252,29.868l22.367,-22.368c7.318,7.317 7.318,19.181 0,26.498l-22.367,22.369c-7.318,-7.318 -7.318,-19.182 0,-26.499l0,0Z" style="fill:#145684;fill-rule:nonzero;"/>
<path d="M43.603,52.252l-7.189,-7.19l-15.179,-15.178c-4.982,4.983 -6.569,12.07 -4.766,18.398c0.845,2.966 2.43,5.765 4.766,8.1l22.368,22.368c7.317,-7.317 7.317,-19.181 0,-26.498l0,0Z" style="fill:#2fb99a;fill-rule:nonzero;"/>
<path d="M88.778,29.868l-22.367,-22.368c-7.317,7.317 -7.317,19.181 0,26.498l22.367,22.369c7.318,-7.318 7.318,-19.182 0,-26.499l0,0Z" style="fill:#2fb99a;fill-rule:nonzero;"/>
<path d="M66.427,52.252l7.19,-7.19l15.178,-15.178c4.981,4.983 6.568,12.07 4.766,18.398c-0.845,2.966 -2.431,5.765 -4.766,8.1l-22.368,22.368c-7.318,-7.317 -7.318,-19.181 0,-26.498l0,0Z" style="fill:#145684;fill-rule:nonzero;"/>
<text x="131.866px" y="49.128px" style="font-family:'Aharoni-Bold', 'Aharoni';font-weight:700;font-size:26.534px;fill:#fff;">DFWEB</text>
</svg>