<?xml version="1.0" encoding="utf-8"?>
<!-- Generator: Adobe Illustrator 23.0.5, SVG Export Plug-In . SVG Version: 6.00 Build 0)  -->
<svg version="1.1" id="Layer_1" xmlns="http://www.w3.org/2000/svg" xmlns:xlink="http://www.w3.org/1999/xlink" x="0px" y="0px"
	 viewBox="0 0 612 792" style="enable-background:new 0 0 612 792;" xml:space="preserve">
<style type="text/css">
	.st0{fill:#145684;}
	.st1{fill:#2FB99A;}
	.st2{enable-background:new    ;}
	.st3{fill:#FFFFFF;}
</style>
<path class="st0" d="M55.6,366.9l58.5-58.5c19.1,19.1,19.1,50.2,0,69.3l-58.5,58.5C36.4,417.1,36.4,386,55.6,366.9
	C55.6,366.9,55.6,366.9,55.6,366.9z"/>
<path class="st1" d="M114,425.4l-18.8-18.8l-39.7-39.7c-13,13-17.2,31.6-12.5,48.1c2.2,7.8,6.4,15.1,12.5,21.2l58.5,58.5
	C133.2,475.6,133.2,444.6,114,425.4L114,425.4z"/>
<path class="st1" d="M232.2,366.9l-58.5-58.5c-19.1,19.1-19.1,50.2,0,69.3l58.5,58.5C251.3,417.1,251.3,386,232.2,366.9L232.2,366.9
	z"/>
<path class="st0" d="M173.7,425.4l18.8-18.8l39.7-39.7c13,13,17.2,31.6,12.5,48.1c-2.2,7.8-6.4,15.1-12.5,21.2l-58.5,58.5
	C154.6,475.6,154.6,444.6,173.7,425.4L173.7,425.4z"/>
<g class="st2">
	<path class="st3" d="M390.3,394.1c0,4.8-1.5,9.3-4.4,13.4c-2.9,4.1-6.6,6.9-11.1,8.5c-2.4,0.8-4.8,1.3-7.3,1.3h-17.8V371h17.8
		c4.3,0,8.4,1.2,12.1,3.6c3.6,2.3,6.4,5.5,8.4,9.4C389.5,387.3,390.3,390.7,390.3,394.1z M377.8,394.1c0-3.2-0.9-6-2.7-8.4
		c-2.4-3.1-5.9-4.7-10.6-4.7h-2.8v26.2h2.8c4.7,0,8.3-1.6,10.6-4.7C376.9,400.1,377.8,397.3,377.8,394.1z"/>
	<path class="st3" d="M424.4,381H410v7.9h13.2v10H410v18.3h-12V371h26.5V381z"/>
	<path class="st3" d="M497.1,371l-14.8,46.3h-12.3l-8.4-26.8l-8.8,26.8h-12.2L426.8,371h12.6l8,29.9l9.8-29.9h9.6l9.1,29.9l8.7-29.9
		H497.1z"/>
	<path class="st3" d="M528.3,417.3H502V371h26.3v10H514v7.9h13.5v10H514v8.3h14.3V417.3z"/>
	<path class="st3" d="M571.1,404.1c0,3.5-1,6.3-2.9,8.4c-2.8,3.1-7.2,4.7-13,4.7h-19.2V371h17.9c8.7,0,13,4,13,12.1
		c0,2.4-0.5,4.4-1.4,6.1c-0.8,1.4-2,2.6-3.7,3.5c3.7,0.8,6.2,2.2,7.6,4.4C570.5,399.1,571.1,401.4,571.1,404.1z M555.7,384.7
		c0-2.1-0.9-3.5-2.8-4.2c-0.7-0.2-1.6-0.3-2.7-0.3H548v9h2.2c2.1,0,3.6-0.5,4.5-1.5C555.3,386.9,555.7,385.9,555.7,384.7z
		 M559.1,403.3c0-2.7-1.4-4.3-4.2-4.7c-0.9-0.1-2.4-0.2-4.5-0.2H548v9.8h2.7c3.1,0,5.2-0.4,6.4-1.1
		C558.4,406.2,559.1,405,559.1,403.3z"/>
</g>
</svg>
