<svg xmlns="http://www.w3.org/2000/svg" viewBox="0 0 529.94 186.35" aria-label="Logo for DFweb"><defs><style>.cls-1{fill:#145684;}.cls-2{fill:#2fb99a;}.cls-3{isolation:isolate;}.cls-4{fill:#fff;}</style></defs>
<title>Asset 1</title>
<g id="Layer_2" data-name="Layer 2">
<g id="Layer_1-2" data-name="Layer 1">
<path class="cls-1" d="M14.39,58.5,72.89,0a49,49,0,0,1,0,69.3l-58.5,58.51a49,49,0,0,1,0-69.31Z" aria-label="Logo for DFweb"/>
<path class="cls-2" d="M72.85,117,54,98.24,14.35,58.54a49,49,0,0,0,0,69.31l58.5,58.5a49,49,0,0,0,0-69.31Z" aria-label="Logo for DFweb"/>
<path class="cls-2" d="M191,58.5,132.5,0a49,49,0,0,0,0,69.3L191,127.81a49,49,0,0,0,0-69.31Z" aria-label="Logo for DFweb"/>
<path class="cls-1" d="M132.54,117l18.8-18.8L191,58.54a49,49,0,0,1,0,69.31l-58.5,58.5a49,49,0,0,1,0-69.31Z" aria-label="Logo for DFweb"/>
<g class="cls-3">
<path aria-label="Logo for DFweb" class="cls-4" d="M349.09,85.73a23.64,23.64,0,0,1-15.48,21.89,22.26,22.26,0,0,1-7.32,1.25H308.53V62.62h17.76a21.67,21.67,0,0,1,12.06,3.62,23.25,23.25,0,0,1,8.37,9.42A22.82,22.82,0,0,1,349.09,85.73Zm-12.47,0a13.52,13.52,0,0,0-2.68-8.36q-3.57-4.73-10.63-4.72h-2.75V98.84h2.75q7.1,0,10.63-4.72A13.65,13.65,0,0,0,336.62,85.73Z"/>
<path aria-label="Logo for DFweb" class="cls-4" d="M383.25,72.65H368.78v7.89H382v10H368.78v18.3h-12V62.62h26.5Z"/>
<path aria-label="Logo for DFweb" class="cls-4" d="M455.93,62.62l-14.77,46.25H428.89l-8.43-26.8-8.85,26.8H399.38L385.59,62.62h12.57l8,29.89L416,62.62h9.56l9.11,29.89,8.74-29.89Z"/>
<path aria-label="Logo for DFweb" class="cls-4" d="M487.11,108.87H460.78V62.62h26.33v10h-14.3v7.89h13.52v10H472.81v8.27h14.3Z"/>
<path aria-label="Logo for DFweb" class="cls-4" d="M529.94,95.72a12.11,12.11,0,0,1-3,8.44q-4.28,4.71-13,4.71H494.73V62.62h17.89q13,0,13,12.06a11.88,11.88,0,0,1-1.42,6.07,9.78,9.78,0,0,1-3.66,3.52q5.54,1.16,7.56,4.44A13.25,13.25,0,0,1,529.94,95.72ZM514.49,76.27a4,4,0,0,0-2.84-4.16,8.58,8.58,0,0,0-2.7-.34h-2.19v9H509c2.07,0,3.56-.51,4.46-1.53A4.39,4.39,0,0,0,514.49,76.27Zm3.42,18.64q0-4-4.16-4.74a33.07,33.07,0,0,0-4.52-.21h-2.47v9.76h2.67q4.59,0,6.42-1.08A4,4,0,0,0,517.91,94.91Z"/>
</g></g></g></svg>